<svg width="98" height="183" viewBox="0 0 98 183" fill="none" xmlns="http://www.w3.org/2000/svg">
<path d="M13.16 84.84V98H8.18005C9.53005 115.37 16.1801 131.67 27.3701 145H29.7401V127.28L38.64 118.07L52.41 145H80.27L56.2 99.65L81.89 73.03H51.4L29.73 97.17V36.27H28.71C16.71 49.88 9.57004 66.77 8.17004 84.83H13.16V84.84Z" fill="#E31549"/>
<path d="M25.23 36.27H7.90002V70.12C11.03 57.74 16.92 46.21 25.23 36.27Z" fill="#E31549"/>
<path d="M7.90002 145H23.96C16.32 135.42 10.87 124.45 7.90002 112.71V145Z" fill="#E31549"/>
<path d="M30.49 30.49C28.63 32.35 26.89 34.28 25.22 36.27H28.71C29.89 34.94 31.09 33.62 32.36 32.36C46.57 18.15 65.01 9.71002 84.84 8.18002V5.53003C64.31 7.07003 45.21 15.78 30.49 30.49Z" fill="#E31549"/>
<path d="M30.49 152.34C45.2 167.05 64.3 175.76 84.84 177.3V174.65C65.01 173.11 46.57 164.68 32.36 150.47C30.6 148.71 28.94 146.88 27.36 144.99H23.95C25.99 147.55 28.16 150.01 30.49 152.34Z" fill="#E31549"/>
<path d="M5.26001 169.7C5.40001 169.69 5.54005 169.68 5.68005 169.68C6.47005 169.68 7.22002 169.84 7.90002 170.14V145.01H5.26001V169.7Z" fill="#E31549"/>
<path d="M7.90002 11.8C7.22002 12.09 6.46005 12.26 5.68005 12.26C5.54005 12.26 5.40001 12.2501 5.26001 12.2401V36.2801H7.90002V11.8Z" fill="#E31549"/>
<path d="M5.18998 171.11C2.32998 171.79 0.420002 174.58 0.900002 177.53C1.4 180.62 4.32001 182.72 7.41001 182.23C10.5 181.73 12.6 178.81 12.11 175.72C11.74 173.41 10.01 171.65 7.87003 171.12" fill="#E31549"/>
<path d="M5.18005 169.7V176.26H7.82001V170.13C7.14001 169.84 6.38004 169.67 5.60004 169.67C5.46004 169.68 5.32005 169.69 5.18005 169.7Z" fill="#E31549"/>
<path d="M2.22003 6.58003C2.22003 4.18003 4.17002 2.23003 6.58002 2.23003C8.98002 2.23003 10.9301 4.18003 10.9301 6.58003C10.9301 8.17003 10.07 9.54003 8.80005 10.3V11.8C10.83 10.93 12.25 8.92003 12.25 6.58003C12.25 3.45003 9.71002 0.910034 6.58002 0.910034C3.45002 0.910034 0.900024 3.46003 0.900024 6.58003C0.900024 9.57003 3.22003 12.02 6.16003 12.23V10.89C3.95003 10.68 2.22003 8.84003 2.22003 6.58003Z" fill="#E31549"/>
<path d="M7.90002 11.8V10.3C7.25002 10.69 6.49005 10.93 5.68005 10.93C5.54005 10.93 5.40001 10.9 5.26001 10.89V12.23C5.40001 12.24 5.54005 12.25 5.68005 12.25C6.46005 12.25 7.21002 12.09 7.90002 11.8Z" fill="#E31549"/>
<path d="M10.93 6.57998C10.93 4.17998 8.97996 2.22998 6.57996 2.22998C4.16996 2.22998 2.21997 4.17998 2.21997 6.57998C2.21997 8.83998 3.94997 10.68 6.15997 10.89V6.57998H8.79999V10.3C10.07 9.53998 10.93 8.15998 10.93 6.57998Z" fill="#E31549"/>
<path d="M5.26001 6.57996V10.89C5.40001 10.9 5.53005 10.93 5.68005 10.93C6.50005 10.93 7.25002 10.69 7.90002 10.3V6.57996H5.26001Z" fill="#E31549"/>
<path d="M5.13 84.84H0V98H5.13V84.84Z" fill="#E31549"/>
<path d="M5.26007 91.42V84.84H5.12012V98H5.26007V91.42Z" fill="#E31549"/>
<path d="M91.4201 177.58C89.2101 177.58 87.0201 177.47 84.8401 177.31V182.84H98.0001V169.68H84.8401V174.66C87.0201 174.83 89.2101 174.94 91.4201 174.94V177.58Z" fill="#E31549"/>
<path d="M91.4201 177.58V174.94C89.2101 174.94 87.0201 174.83 84.8401 174.66V177.31C87.0201 177.47 89.2101 177.58 91.4201 177.58Z" fill="#E31549"/>
<path d="M98.0001 13.16V0H84.8401V5.53001C87.0201 5.37001 89.2101 5.26 91.4201 5.26V7.9C89.2101 7.9 87.0201 8.01 84.8401 8.18V13.16H98.0001Z" fill="#E31549"/>
<path d="M91.4201 5.26001C89.2101 5.26001 87.0201 5.37001 84.8401 5.53001V8.18001C87.0201 8.01001 89.2101 7.90001 91.4201 7.90001V5.26001Z" fill="#E31549"/>
</svg>
